<?xml version="1.0" standalone="no"?>
<!DOCTYPE svg PUBLIC "-//W3C//DTD SVG 20010904//EN"
 "http://www.w3.org/TR/2001/REC-SVG-20010904/DTD/svg10.dtd">
<svg version="1.0" xmlns="http://www.w3.org/2000/svg"
 width="7730.000000pt" height="7730.000000pt" viewBox="0 0 7730.000000 7730.000000"
 preserveAspectRatio="xMidYMid meet">

<g transform="translate(0.000000,7730.000000) scale(0.100000,-0.100000)"
fill="#000000" stroke="none">
<path d="M35220 59052 l0 -4089 53 -20 c79 -31 291 -125 302 -135 5 -5 -10
-46 -40 -108 l-49 -99 39 -88 c306 -689 762 -1149 1327 -1338 168 -56 275 -76
445 -82 l152 -6 3 74 3 73 101 -154 c130 -199 206 -331 310 -544 80 -162 195
-441 244 -588 l22 -68 41 0 c23 -1 775 -47 1670 -103 l1628 -103 -6 71 c-16
194 -385 6403 -385 6489 0 293 101 576 290 817 81 103 169 183 293 266 l97 65
0 1534 0 1534 -22 5 c-13 2 -180 21 -373 40 -192 20 -818 85 -1390 145 -572
60 -1859 195 -2860 300 -1001 104 -1837 193 -1857 196 l-38 6 0 -4090z m2432
-1055 c308 -112 442 -444 301 -745 -35 -75 -158 -198 -235 -235 -87 -42 -168
-59 -259 -55 -73 3 -80 1 -85 -17 -3 -11 -79 -398 -169 -860 -264 -1350 -238
-1243 -307 -1285 -79 -48 -134 -36 -274 63 -78 55 -93 71 -122 127 -31 59 -33
72 -30 135 3 58 12 92 55 190 28 66 203 468 388 894 185 425 338 778 341 785
2 6 -24 27 -58 46 -118 68 -213 202 -243 345 -18 87 -18 132 0 217 43 204 204
367 408 413 86 20 205 13 289 -18z"/>
<path d="M43520 60906 l0 -1365 288 5 c158 3 1369 16 2692 29 1323 13 2600 27
2838 31 l432 6 0 999 0 999 -22 4 c-13 3 -156 19 -318 35 -350 36 -1599 167
-3880 406 -916 96 -1732 182 -1815 190 -82 9 -165 18 -182 21 l-33 5 0 -1365z"/>
<path d="M51530 60529 l0 -902 458 6 c251 3 1660 18 3130 34 l2672 27 0 538 0
538 -22 4 c-13 3 -653 70 -1423 151 -2209 230 -4726 494 -4772 500 l-43 6 0
-902z"/>
<path d="M22265 55980 c-170 -10 -741 -69 -1075 -111 -494 -62 -1109 -179
-1380 -262 -42 -13 -47 -13 -101 14 -148 74 -306 66 -475 -24 l-61 -32 56
-130 c51 -120 56 -136 55 -205 0 -129 -51 -195 -240 -310 -96 -58 -197 -39
-239 46 -12 22 -33 112 -50 207 -16 92 -33 167 -37 167 -5 0 -59 -25 -121 -56
-124 -63 -216 -143 -251 -221 -16 -37 -32 -50 -140 -112 -504 -290 -989 -707
-1352 -1162 -110 -138 -228 -307 -332 -474 -100 -163 -307 -568 -375 -734
l-42 -105 -100 -31 c-943 -297 -1506 -1132 -1627 -2410 -6 -71 -13 -278 -14
-460 -1 -181 -5 -492 -9 -690 -10 -466 9 -766 71 -1105 152 -837 501 -1433
1059 -1807 512 -343 1141 -385 1702 -113 152 73 230 122 329 206 l63 54 253
-128 c1182 -598 2336 -932 3498 -1013 91 -6 294 -12 451 -12 l286 -1 29 -55
c39 -74 110 -143 191 -183 l68 -33 655 0 655 0 66 32 c282 139 348 545 127
779 -59 62 -112 95 -187 118 -48 14 -132 16 -656 16 -651 0 -667 -1 -760 -55
-64 -38 -142 -126 -176 -200 -23 -49 -37 -67 -57 -72 -36 -9 -446 5 -657 23
-809 68 -1639 291 -2518 676 -180 79 -618 295 -808 400 l-147 80 58 115 c73
143 135 332 160 483 10 63 31 266 45 450 14 184 28 351 30 370 2 19 7 64 10
100 15 156 37 333 55 441 33 192 43 405 37 764 -12 636 -78 1175 -207 1680
-144 565 -345 973 -622 1260 l-87 91 53 99 c155 297 440 627 768 890 l83 66 3
-45 3 -44 57 5 c444 40 945 183 1387 397 423 204 761 444 1106 783 l156 153
74 21 c1591 442 3919 705 6269 710 241 0 387 4 375 9 -31 14 -1098 205 -1650
295 -1791 293 -3138 433 -3790 395z"/>
<path d="M50658 55684 c-64 -20 -149 -99 -178 -166 -26 -60 -48 -177 -42 -220
4 -27 6 -28 67 -28 l64 0 6 58 c19 167 78 232 211 232 149 0 211 -55 229 -200
10 -82 -6 -112 -100 -184 -99 -77 -139 -128 -164 -214 -19 -62 -29 -76 -108
-157 -149 -151 -308 -254 -474 -308 -41 -14 -145 -37 -230 -52 -256 -44 -329
-69 -408 -140 -46 -42 -95 -132 -110 -203 -12 -57 -15 -192 -5 -229 l6 -23
229 0 229 0 0 70 0 70 -166 0 -167 0 6 55 c6 59 38 124 79 162 42 39 111 62
289 93 214 38 272 53 374 95 160 66 274 143 416 282 l97 94 89 -88 c163 -160
347 -272 537 -327 49 -14 156 -37 240 -51 170 -29 254 -53 300 -89 42 -32 83
-109 92 -174 l7 -52 -167 0 -166 0 0 -70 0 -70 229 0 229 0 6 31 c3 17 6 64 6
103 0 220 -111 367 -316 420 -32 8 -129 27 -214 42 -187 32 -258 53 -370 109
-123 63 -222 136 -333 248 -88 88 -98 102 -92 125 11 43 51 88 130 147 88 65
121 110 136 187 24 118 -25 282 -106 357 -79 73 -262 104 -387 65z"/>
<path d="M59410 53205 c-105 -23 -255 -104 -339 -181 -120 -111 -190 -223
-237 -381 -23 -75 -27 -107 -27 -218 -1 -162 16 -234 85 -375 46 -92 63 -117
147 -200 78 -78 113 -105 187 -143 116 -59 228 -87 354 -87 221 0 392 72 550
230 114 115 173 217 217 381 25 94 23 299 -5 400 -71 261 -264 469 -514 554
-72 25 -101 29 -218 31 -91 3 -156 -1 -200 -11z m247 -220 c74 -22 126 -65
158 -130 24 -49 27 -64 23 -128 -6 -89 -40 -160 -106 -217 -42 -38 -115 -70
-157 -70 -40 0 -113 31 -153 66 -48 40 -98 137 -108 206 -20 145 104 284 257
287 19 1 58 -6 86 -14z m14 -631 c108 -18 269 -67 316 -95 34 -21 73 -90 73
-130 0 -32 -43 -158 -65 -192 -9 -14 -36 -36 -60 -47 -37 -18 -56 -20 -117
-16 -40 3 -129 8 -198 11 -311 15 -440 24 -457 33 -42 23 -74 71 -93 138 -43
148 -18 225 86 264 129 48 347 62 515 34z"/>
<path d="M26235 51610 c-1427 -32 -2823 -104 -4270 -221 -614 -49 -1019 -88
-1102 -105 -556 -114 -1003 -524 -1159 -1062 -55 -192 -56 -206 -61 -801 -5
-589 -2 -647 42 -821 150 -593 659 -1050 1260 -1129 182 -25 1149 -110 1765
-156 1858 -138 3463 -198 5350 -198 1420 0 2547 30 3845 103 1021 58 2154 145
2327 180 284 58 552 203 758 410 215 216 354 470 421 772 19 83 22 147 30 598
6 278 7 557 4 620 -21 389 -175 737 -446 1009 -210 211 -476 354 -769 415
-138 28 -1044 125 -1740 186 -1068 93 -2025 148 -3345 191 -413 13 -2430 20
-2910 9z m-2827 -872 c30 -30 3 -98 -39 -98 -23 0 -59 34 -59 57 0 42 68 71
98 41z m-333 -24 c23 -24 15 -66 -16 -83 -24 -13 -29 -13 -53 2 -30 20 -35 57
-10 81 20 21 58 20 79 0z m8843 -30 c24 -17 30 -62 10 -82 -17 -17 -64 -15
-82 4 -22 21 -20 50 4 74 24 24 38 25 68 4z m-8186 -11 c36 -33 13 -93 -37
-93 -49 0 -72 55 -38 92 20 22 51 23 75 1z m7856 -9 c44 -30 18 -94 -38 -94
-31 0 -50 23 -50 59 0 19 34 51 55 51 6 0 21 -7 33 -16z m-8834 -50 c33 -33 9
-94 -36 -94 -28 0 -58 28 -58 53 0 48 61 74 94 41z m9506 -3 c17 -32 11 -60
-15 -77 -49 -32 -104 23 -75 75 15 28 75 29 90 2z m-982 -53 c7 -7 12 -24 12
-38 0 -35 -17 -50 -57 -50 -26 0 -36 6 -45 25 -18 40 3 75 45 75 18 0 38 -5
45 -12z m-7240 -30 c7 -7 12 -24 12 -38 0 -33 -17 -50 -51 -50 -48 0 -71 38
-49 81 12 22 68 27 88 7z m8516 -54 c33 -33 9 -94 -36 -94 -26 0 -58 27 -58
49 0 50 61 79 94 45z m-10080 -40 c22 -21 20 -50 -4 -74 -24 -24 -47 -25 -72
-3 -36 33 -13 93 37 93 13 0 31 -7 39 -16z m8516 -54 c38 -38 15 -90 -40 -90
-50 0 -69 66 -28 94 30 21 44 20 68 -4z m-7615 -60 c185 -21 340 -82 484 -190
308 -232 443 -623 347 -1000 -44 -174 -113 -297 -245 -433 -122 -126 -267
-211 -441 -258 -123 -34 -358 -34 -479 -1 -345 94 -598 349 -692 698 -32 115
-32 334 -1 458 97 388 419 674 817 725 98 12 109 12 210 1z m919 -6 c23 -22
20 -60 -6 -78 -29 -20 -47 -20 -70 1 -36 33 -13 93 37 93 13 0 31 -7 39 -16z
m8524 -62 c28 -36 5 -82 -41 -82 -40 0 -57 15 -57 51 0 52 65 72 98 31z m-778
-11 c330 -86 587 -335 686 -667 38 -126 44 -318 16 -456 -37 -181 -113 -324
-241 -460 -136 -144 -289 -233 -478 -280 -130 -32 -323 -30 -453 4 -365 97
-627 373 -706 743 -21 95 -20 280 1 380 80 383 380 675 770 751 102 20 298 12
405 -15z m-9798 -48 c22 -20 23 -51 1 -75 -33 -36 -93 -13 -93 37 0 49 55 72
92 38z m8530 -68 c18 -40 -3 -75 -45 -75 -40 0 -57 15 -57 50 0 35 17 50 57
50 26 0 36 -6 45 -25z m-6291 -75 c13 -8 19 -21 19 -46 0 -28 -5 -36 -27 -45
-42 -16 -73 2 -73 44 0 52 34 72 81 47z m8527 -62 c7 -7 12 -24 12 -38 0 -33
-17 -50 -50 -50 -33 0 -50 17 -50 50 0 33 17 50 50 50 14 0 31 -5 38 -12z
m-10928 -88 c24 -24 25 -38 4 -68 -17 -24 -62 -30 -82 -10 -17 17 -15 64 4 82
21 22 50 20 74 -4z m8526 -65 c18 -28 11 -60 -17 -76 -21 -11 -59 -3 -71 15
-12 17 -9 61 4 74 21 21 66 14 84 -13z m-5989 -111 c15 -24 15 -29 2 -53 -28
-49 -99 -32 -99 24 0 55 67 75 97 29z m8519 -59 c15 -23 15 -27 0 -50 -11 -17
-26 -25 -44 -25 -35 0 -52 16 -52 50 0 34 17 50 52 50 18 0 33 -8 44 -25z
m-11138 -87 c17 -17 15 -63 -3 -78 -36 -30 -95 -4 -95 41 0 40 69 66 98 37z
m8516 -54 c51 -50 -23 -125 -76 -77 -24 21 -23 48 2 73 24 24 53 26 74 4z
m-5864 -124 c11 -11 20 -29 20 -40 0 -22 -33 -60 -53 -60 -48 0 -74 65 -40
102 21 24 48 23 73 -2z m8527 -66 c15 -24 15 -29 2 -53 -16 -29 -61 -40 -85
-20 -17 14 -19 70 -2 87 22 22 66 14 85 -14z m-11183 -90 c33 -33 9 -94 -36
-94 -28 0 -58 28 -58 53 0 48 61 74 94 41z m8524 -56 c7 -7 12 -24 12 -38 0
-35 -17 -50 -57 -50 -26 0 -36 6 -45 25 -18 40 3 75 45 75 18 0 38 -5 45 -12z
m-5910 -120 c18 -18 14 -63 -8 -83 -45 -40 -109 20 -75 71 17 26 62 33 83 12z
m8510 -54 c24 -17 30 -62 10 -82 -37 -37 -113 12 -89 57 10 18 37 40 51 41 3
0 16 -7 28 -16z m-11050 -90 c24 -17 30 -62 10 -82 -17 -17 -64 -15 -82 4 -22
21 -20 50 4 74 24 24 38 25 68 4z m8523 -54 c23 -13 26 -62 3 -84 -21 -22 -50
-20 -74 4 -49 49 8 113 71 80z m-6106 -120 c23 -25 13 -67 -20 -82 -52 -23
-100 46 -59 86 21 22 57 20 79 -4z m8515 -50 c11 -11 20 -28 20 -37 0 -46 -79
-73 -100 -34 -16 31 -12 59 12 75 30 21 44 20 68 -4z m-10762 -72 c20 -20 14
-65 -10 -82 -30 -21 -44 -20 -68 4 -24 24 -26 53 -4 74 18 19 65 21 82 4z
m8514 -55 c35 -32 13 -93 -34 -93 -27 0 -58 28 -58 52 0 23 34 58 57 58 9 0
25 -7 35 -17z m-6468 -89 c22 -21 20 -50 -5 -75 -22 -22 -55 -19 -76 9 -28 35
-3 82 42 82 13 0 31 -7 39 -16z m8514 -50 c26 -18 28 -50 5 -76 -20 -22 -51
-23 -75 -1 -24 21 -23 48 2 73 24 24 38 25 68 4z m-10340 -50 c26 -18 28 -50
5 -76 -20 -22 -51 -23 -75 -1 -22 20 -23 51 -1 75 20 22 42 23 71 2z m8526
-60 c22 -21 20 -50 -4 -74 -24 -24 -38 -25 -68 -4 -24 16 -28 44 -12 75 13 23
62 26 84 3z m-6963 -44 c25 -14 25 -62 -1 -85 -45 -41 -110 18 -76 70 17 26
45 32 77 15z m8517 -56 c24 -17 30 -62 10 -82 -18 -18 -63 -14 -83 8 -22 25
-13 67 18 80 30 12 30 12 55 -6z m-9800 -20 c26 -18 28 -50 5 -76 -20 -22 -51
-23 -75 -1 -24 21 -23 48 2 73 24 24 38 25 68 4z m8526 -60 c22 -21 20 -50 -5
-75 -22 -22 -55 -19 -76 9 -40 50 36 111 81 66z m-7542 -11 c34 -31 11 -93
-35 -93 -27 0 -57 28 -57 53 0 48 56 73 92 40z m-656 -48 c33 -50 -20 -104
-71 -71 -27 18 -34 63 -13 84 21 21 66 14 84 -13z m9186 -21 c8 -17 8 -31 0
-49 -15 -33 -75 -36 -92 -4 -16 29 -8 62 18 75 31 16 61 7 74 -22z m-8860 9
c22 -20 23 -51 1 -75 -20 -22 -42 -23 -71 -2 -26 18 -28 50 -5 76 20 22 51 23
75 1z m8188 -33 c24 -24 25 -38 4 -68 -17 -24 -62 -30 -82 -10 -29 29 -1 98
40 98 10 0 27 -9 38 -20z m338 -22 c7 -7 12 -24 12 -38 0 -35 -17 -50 -57 -50
-42 0 -63 35 -45 75 9 19 19 25 45 25 18 0 38 -5 45 -12z"/>
<path d="M38340 47778 c0 -786 -12 -1932 -21 -2028 -35 -373 -190 -733 -444
-1031 -185 -216 -476 -416 -753 -518 -136 -50 -265 -80 -462 -105 -19 -2
-3882 20 -8584 51 -4989 32 -8552 51 -8557 46 -5 -5 -21 -54 -35 -109 -32
-124 -42 -328 -22 -449 l14 -80 34 3 c19 1 78 7 130 11 124 12 15913 -85
16190 -99 227 -11 337 -26 510 -70 346 -87 657 -239 945 -459 75 -58 82 -61
135 -61 83 0 284 -19 385 -36 489 -82 959 -325 1310 -679 194 -195 333 -390
453 -637 l77 -157 9740 0 9740 -1 -3 138 c-1 75 -11 519 -22 985 -10 467 -21
851 -24 854 -3 3 -3595 -22 -7983 -55 -4388 -34 -7989 -59 -8003 -57 -14 2
-61 9 -105 15 -167 24 -368 105 -518 207 l-82 56 -800 194 c-440 106 -1061
256 -1380 333 -1246 300 -1142 273 -1181 311 -63 61 -67 149 -9 217 29 34 9
26 715 302 904 355 2095 822 2097 824 5 4 -134 2236 -139 2242 -5 4 -3212 163
-3325 164 l-23 0 0 -322z"/>
<path d="M44090 47565 l0 -515 4859 0 4859 0 6 28 c7 32 166 989 166 997 0 3
-163 5 -362 5 l-363 -1 -25 -40 c-14 -22 -41 -52 -60 -67 l-35 -27 -4260 -2
c-2938 -2 -4270 1 -4292 8 -30 10 -123 100 -123 120 0 5 -83 9 -185 9 l-185 0
0 -515z"/>
<path d="M23929 41858 c-322 -27 -644 -191 -854 -437 -165 -193 -273 -432
-304 -676 -7 -50 -12 -526 -13 -1275 l-3 -1195 26 -95 c38 -135 81 -242 138
-340 158 -272 408 -476 701 -574 213 -71 -79 -64 3907 -91 1983 -13 3606 -25
3608 -27 2 -2 -46 -106 -107 -233 -60 -126 -688 -1444 -1395 -2927 l-1286
-2698 -389 0 c-308 0 -389 3 -385 13 2 6 42 108 87 225 69 180 80 216 69 227
-11 10 -1235 757 -2149 1311 -102 62 -318 193 -480 292 -162 99 -297 179 -301
176 -5 -3 -119 -164 -458 -649 -326 -467 -575 -822 -582 -829 -4 -5 -47 -1
-101 10 -65 13 -136 19 -236 19 -135 0 -143 1 -147 20 -3 11 -13 98 -24 192
-20 186 -29 211 -83 239 -24 13 -48 15 -102 11 -107 -8 -708 -77 -728 -83 -10
-3 -31 -19 -48 -35 -36 -37 -38 -70 -14 -276 11 -94 12 -138 5 -142 -6 -4
-173 -24 -372 -46 -200 -22 -368 -44 -377 -51 -15 -11 -15 -24 1 -175 20 -185
20 -202 9 -195 -5 3 -555 -31 -1223 -75 -668 -44 -1233 -78 -1257 -77 l-43 3
-66 155 c-131 312 -270 663 -388 980 l-72 196 288 1379 c159 759 318 1520 353
1690 36 171 182 870 326 1555 143 685 260 1249 260 1253 0 5 -22 -10 -49 -32
-84 -70 -265 -186 -391 -250 -257 -131 -514 -211 -815 -253 -116 -16 -454 -16
-570 0 -554 77 -1008 292 -1384 657 -141 136 -237 251 -333 394 -40 61 -74
107 -75 103 -2 -4 -97 -720 -213 -1592 -115 -872 -219 -1650 -230 -1730 -11
-80 -27 -199 -35 -265 -9 -66 -38 -284 -65 -485 -27 -201 -115 -858 -196
-1460 -80 -602 -147 -1096 -149 -1098 -1 -2 -425 -86 -941 -187 -517 -102
-949 -187 -961 -190 l-23 -5 0 -9550 0 -9550 8995 2 8995 3 0 5629 c0 3096 -1
5630 -3 5632 -1 1 -52 -31 -112 -72 -757 -516 -1566 -883 -2310 -1048 -454
-100 -771 -132 -1255 -123 -373 7 -600 31 -930 98 -773 158 -1535 489 -2311
1004 -1210 803 -2386 2043 -3447 3636 -307 462 -573 897 -852 1397 -84 151
-110 206 -100 212 7 4 36 11 64 14 28 4 105 16 171 26 66 11 428 67 805 125
377 58 699 109 717 114 36 10 33 19 54 -174 6 -60 16 -106 25 -115 12 -12 60
-9 386 27 205 23 374 40 376 38 3 -2 11 -66 19 -142 17 -160 32 -198 86 -226
l39 -20 399 45 c377 42 400 46 425 69 49 45 54 70 38 209 -20 182 -26 165 59
180 101 17 248 66 337 110 l76 38 114 -186 c529 -862 681 -1108 692 -1115 12
-7 97 36 513 258 44 23 233 123 420 222 758 401 1379 730 1530 811 183 97 268
142 450 237 72 38 131 69 132 70 2 1 -15 57 -37 126 -22 68 -40 125 -40 127 0
1 1700 2 3779 2 l3779 0 227 -155 c126 -85 230 -157 233 -159 9 -10 -373 -709
-581 -1061 -108 -183 -367 -606 -427 -695 -20 -30 -46 -72 -59 -92 l-23 -38
1919 0 1918 0 -95 57 c-278 165 -504 391 -670 667 -59 98 -152 299 -153 331
-1 11 73 126 164 255 91 129 256 363 366 520 110 157 213 303 229 326 l29 41
225 6 c132 4 254 12 295 21 296 61 549 245 693 506 17 30 94 215 173 410 78
195 144 357 146 360 8 9 182 -57 293 -112 217 -107 369 -217 525 -379 264
-275 420 -572 502 -958 25 -117 27 -143 27 -361 0 -218 -2 -245 -28 -365 -35
-166 -81 -306 -150 -451 -165 -346 -430 -631 -768 -826 l-82 -48 3092 0 3092
0 0 -320 0 -320 50 0 50 0 0 -805 0 -805 -2060 0 -2060 0 0 -6395 0 -6395 315
0 315 0 0 5340 0 5340 734 0 734 0 4 90 c4 80 7 94 29 115 l24 24 590 3 c325
2 1624 2 2888 1 l2298 -3 24 -26 25 -27 0 -5428 0 -5429 55 0 55 0 0 6395 0
6395 -630 0 -630 0 0 805 0 805 50 0 50 0 0 320 0 320 1904 2 1904 3 -93 275
c-96 283 -159 463 -239 680 -64 170 -239 624 -243 630 -3 2 -16 -3 -31 -12
-261 -158 -374 -222 -517 -292 -498 -246 -1050 -404 -1575 -450 -321 -28 -757
-18 -1035 25 -33 5 -63 9 -66 9 -3 0 -9 73 -12 163 -8 200 -25 271 -103 431
-81 164 -123 209 -267 280 -138 68 -204 92 -304 106 -54 8 -308 10 -823 8
-730 -4 -747 -4 -823 -26 l-78 -22 -107 72 c-129 87 -227 158 -347 253 -49 39
-130 96 -180 125 -220 130 -528 353 -641 461 l-41 40 -139 -39 c-383 -108
-847 -187 -1239 -209 -327 -19 -1133 0 -1150 27 -8 13 73 288 103 349 36 75
141 180 217 218 33 16 364 157 735 313 371 156 677 285 679 286 11 8 -14 79
-42 120 -43 62 -117 113 -240 165 -146 62 -217 139 -253 274 -15 56 -19 205
-5 205 10 0 14 -2 381 -168 457 -207 766 -357 852 -415 158 -105 302 -258 420
-445 l53 -84 150 -80 c345 -184 735 -352 1071 -463 307 -101 724 -193 1034
-227 151 -16 651 -16 795 0 773 90 1466 373 2224 909 251 178 436 324 926 733
416 347 538 437 779 575 243 140 539 252 787 300 199 39 269 53 427 85 78 17
224 42 325 56 100 14 185 29 189 32 4 4 10 19 13 34 l7 28 -7030 2 -7030 3
182 455 182 455 6314 3 6313 2 41 -43 c33 -34 61 -50 146 -81 531 -197 1086
-329 1211 -287 51 16 86 58 284 336 98 138 262 363 365 500 104 138 204 283
225 325 87 175 206 319 297 360 91 41 240 14 345 -63 82 -61 127 -145 126
-237 0 -40 -9 -86 -22 -120 -29 -76 -110 -181 -193 -248 l-69 -57 6 -65 c4
-36 8 -78 11 -95 9 -70 24 -200 24 -212 0 -10 176 -13 896 -13 l896 0 -6 23
c-45 158 -50 193 -50 377 -1 210 14 326 69 546 78 314 182 573 336 834 48 81
88 131 174 219 129 132 123 129 333 130 149 1 237 -17 347 -69 218 -105 353
-331 406 -675 13 -87 17 -398 5 -457 -7 -37 -6 -37 34 -48 l41 -11 77 82 c52
55 84 100 99 136 70 171 183 266 296 248 84 -14 177 -78 212 -146 27 -52 29
-111 7 -186 -32 -104 -78 -174 -245 -367 -19 -23 -33 -55 -43 -102 -31 -152
-40 -170 -128 -268 -68 -75 -81 -95 -74 -111 18 -43 568 -2537 568 -2578 0
-47 -23 -78 -70 -92 -122 -37 -640 80 -906 205 -225 105 -381 253 -400 376 -5
34 -12 48 -29 54 -21 8 -22 14 -28 212 -4 127 -16 270 -32 383 -13 99 -30 222
-36 273 l-12 92 -1314 0 -1313 0 0 -35 c0 -41 -5 -39 160 -55 167 -16 470 -55
831 -105 173 -24 391 -54 485 -65 382 -48 609 -142 861 -358 53 -45 277 -292
271 -298 -2 -2 -53 10 -113 27 -61 16 -118 29 -129 29 -27 0 -286 -208 -501
-404 -670 -609 -1083 -1207 -1160 -1676 -30 -186 -17 -308 60 -577 112 -387
546 -1631 894 -2561 34 -89 61 -165 61 -167 0 -3 -103 -5 -229 -5 -210 0 -230
-1 -235 -17 -7 -25 -51 -298 -80 -498 -74 -504 -133 -1090 -152 -1495 l-7
-144 29 21 c45 32 331 328 411 423 210 253 422 590 522 828 19 45 37 80 39 78
2 -3 -7 -58 -21 -123 -30 -139 -71 -398 -89 -568 -20 -180 -17 -787 5 -930
l16 -110 -32 -28 c-59 -51 -311 -244 -462 -354 l-150 -109 -79 -187 -79 -186
-91 167 c-50 92 -96 176 -102 186 -10 17 -14 16 -75 -9 -226 -92 -611 -168
-1049 -205 -202 -18 -837 -24 -1120 -11 -413 19 -825 54 -1199 101 -175 22
-222 42 -269 112 -32 50 -34 93 -13 363 17 214 10 646 -14 885 -56 566 -161
1136 -326 1763 l-10 37 -264 0 -264 0 -3 -442 -3 -443 -27 -55 c-84 -170 -320
-300 -658 -362 -95 -17 -168 -21 -417 -25 l-303 -5 0 -6394 0 -6394 604 0 605
0 3 -542 c4 -596 1 -564 66 -654 46 -63 109 -89 292 -118 203 -33 336 -46 479
-46 100 0 123 3 166 24 58 26 118 88 134 137 10 31 191 1155 191 1186 0 11
201 13 1097 13 l1096 0 -6 -617 c-7 -681 -9 -659 56 -705 46 -33 223 -45 447
-30 186 12 226 20 278 59 60 45 69 78 107 385 42 344 105 881 105 897 0 8 323
11 1250 11 l1250 0 0 30 c0 78 -120 5470 -125 5645 -4 110 -4 198 -2 195 3 -3
42 -198 87 -435 45 -236 83 -431 85 -433 9 -9 292 -52 450 -69 237 -25 1009
-25 1325 0 750 61 1546 186 2274 357 115 27 210 51 212 53 2 2 -19 46 -46 98
-277 520 -532 1270 -745 2194 -167 726 -304 1498 -495 2800 -148 1009 -187
1252 -245 1509 -28 123 -73 263 -106 329 l-20 37 -73 -40 c-41 -22 -111 -54
-157 -71 -139 -50 -270 -133 -566 -357 -198 -150 -201 -152 -248 -152 -81 0
-135 62 -135 155 0 41 33 117 246 565 260 548 251 532 336 577 15 7 5 19 -64
73 -187 148 -408 295 -623 413 -66 37 -126 70 -132 74 -25 16 -120 560 -138
788 -4 44 -10 125 -14 180 -12 157 -13 526 -1 685 38 516 144 989 327 1455 30
77 57 142 59 144 2 2 12 -2 21 -10 10 -7 -5 9 -34 36 -88 86 -95 170 -23 308
163 312 398 612 595 760 73 55 204 127 230 127 26 0 322 -251 519 -440 137
-132 330 -341 449 -487 l92 -113 28 33 c43 48 123 222 141 304 21 94 20 241
-1 376 -15 92 -15 119 -5 193 25 167 92 295 218 413 91 85 175 130 334 176
434 126 678 356 776 730 23 87 27 126 31 295 5 217 -8 359 -52 538 -180 740
-781 1239 -1710 1418 -99 19 -205 42 -235 50 -91 27 -183 80 -250 148 -108
109 -154 202 -184 371 -34 190 -113 314 -281 439 -27 21 -131 83 -230 139
-208 118 -290 187 -318 271 -25 74 -72 142 -163 236 -71 74 -88 99 -128 188
-101 226 -253 513 -339 642 -247 368 -594 606 -966 660 -108 16 -343 8 -439
-15 -40 -9 -76 -14 -79 -11 -5 5 -62 2392 -63 2644 l0 122 -9663 0 -9664 0 -7
-112 c-9 -152 -31 -301 -64 -438 l-28 -115 -3239 -5 c-3052 -5 -3245 -6 -3328
-23 -122 -25 -245 -62 -346 -104 -47 -19 -92 -38 -99 -40 -11 -5 -13 88 -11
523 2 575 -1 620 -56 790 -139 425 -474 736 -915 851 -75 19 -136 27 -290 34
-107 5 -1408 16 -2890 24 -4140 24 -4401 26 -4465 28 -33 2 -103 0 -156 -5z
m2451 -113 c36 -3 322 -5 635 -6 314 0 1457 -7 2540 -14 2140 -15 2050 -13
2230 -71 225 -74 420 -209 559 -389 113 -145 174 -267 224 -445 l26 -95 4
-587 3 -586 -68 -44 c-204 -133 -397 -334 -520 -542 -19 -33 -213 -432 -429
-886 l-394 -825 -432 3 c-238 1 -1864 12 -3613 23 -2646 16 -3197 22 -3282 34
-448 63 -821 380 -957 814 -59 187 -58 167 -48 1437 9 1105 11 1163 30 1249
83 373 318 671 655 830 105 50 240 91 342 104 69 9 2367 5 2495 -4z m-9160
-3792 c157 -32 314 -159 388 -313 42 -88 62 -169 62 -253 0 -90 -669 -4766
-691 -4835 -12 -35 -44 -97 -71 -139 -87 -130 -211 -209 -381 -244 -92 -18
-102 -19 -195 -4 -212 34 -392 185 -462 388 -49 142 -64 11 304 2602 221 1552
343 2381 356 2421 64 190 235 336 450 383 90 20 121 19 240 -6z m37966 -993
c88 -35 235 -73 344 -90 190 -28 338 -156 456 -394 49 -100 63 -165 45 -216
-6 -18 -149 -271 -318 -564 -329 -570 -340 -585 -454 -646 -86 -46 -153 -56
-225 -35 -72 21 -133 79 -272 262 -186 243 -331 373 -440 392 l-32 6 100 205
c56 113 210 424 342 692 l241 487 68 -35 c38 -19 103 -48 145 -64z m-18151
-687 c362 -112 499 -702 299 -1287 -206 -600 -682 -962 -1042 -791 -436 207
-452 1097 -31 1689 227 318 523 467 774 389z m-11825 -3763 c750 -396 1437
-759 1495 -790 39 -21 234 -124 435 -230 201 -106 367 -194 369 -196 2 -2
-657 -4 -1466 -4 l-1471 0 -55 113 c-31 61 -83 148 -116 192 -34 44 -59 85
-57 92 3 7 85 128 184 270 98 142 242 351 321 465 137 200 143 207 164 194 12
-8 101 -55 197 -106z m-8811 -585 c390 -56 754 -234 1040 -510 170 -164 282
-318 387 -530 217 -441 253 -960 98 -1423 -237 -713 -826 -1195 -1581 -1293
-136 -17 -429 -7 -568 21 -357 71 -700 249 -959 499 -279 270 -459 597 -544
991 -24 116 -26 143 -27 370 0 218 3 258 23 360 64 315 195 594 397 845 286
354 725 602 1186 669 129 19 418 19 548 1z m10800 -1579 c-7 -7 -2099 -956
-2107 -956 -14 0 -571 931 -565 946 4 12 188 14 1341 14 734 0 1333 -2 1331
-4z m21545 -698 c126 -41 228 -139 277 -266 28 -71 42 -306 18 -298 -8 3 -72
19 -144 36 -377 91 -816 252 -1210 445 -93 46 -179 90 -190 99 -18 14 39 15
585 9 564 -5 609 -7 664 -25z m306 -1818 l0 -320 50 0 50 0 0 -805 0 -805
-1215 0 -1215 0 0 805 0 805 45 0 45 0 0 320 0 320 1120 0 1120 0 0 -320z
m-2470 -3045 l0 -575 -1690 0 -1690 0 0 34 c0 19 9 63 20 98 119 384 813 727
1820 897 431 73 897 112 1428 119 l112 2 0 -575z m475 555 c790 -50 1527 -199
1990 -402 l100 -44 3 -342 2 -342 -1215 0 -1215 0 0 570 0 570 88 0 c48 0 159
-5 247 -10z m2409 -629 c99 -71 198 -169 248 -245 42 -65 78 -168 78 -222 l0
-34 -250 0 -250 0 0 306 0 306 48 -27 c26 -15 82 -53 126 -84z m4254 -1258
c-264 -1350 -521 -3101 -673 -4588 -20 -192 -38 -365 -41 -382 l-5 -33 -99 0
-100 0 0 2338 c0 2591 -5 2384 67 2531 61 127 195 242 339 292 94 33 127 37
345 38 l206 1 -39 -197z m4541 182 c204 -49 353 -194 418 -410 17 -57 18 -184
21 -2417 l2 -2358 -481 0 -481 0 6 63 c16 162 77 1280 100 1862 35 850 40
1109 41 2095 l0 1015 -27 78 c-16 42 -28 80 -28 82 0 3 82 5 183 5 127 0 201
-5 246 -15z m-2649 -4095 l0 -1090 -281 0 -281 0 7 33 c96 465 300 1312 410
1697 41 147 137 450 142 450 2 0 3 -490 3 -1090z m393 -1037 c3 -50 2 -53 -20
-53 l-23 0 1 293 2 292 18 -240 c9 -132 19 -264 22 -292z m-3075 -865 c-14
-178 -38 -485 -52 -682 -15 -198 -28 -361 -30 -363 -2 -2 -13 31 -25 75 -20
76 -21 98 -21 685 l0 607 78 0 77 0 -27 -322z m3116 250 c9 -105 62 -973 81
-1313 8 -159 17 -309 19 -332 l4 -43 -769 0 c-649 0 -769 2 -769 14 0 23 134
731 237 1254 l97 492 547 0 547 0 6 -72z m2656 -523 c0 -505 -2 -608 -16 -673
-39 -192 -144 -341 -296 -422 -116 -62 -123 -63 -485 -67 l-333 -4 0 21 c0 11
18 233 39 493 22 260 52 632 66 827 14 195 28 370 31 388 l5 32 494 0 495 0 0
-595z"/>
<path d="M24701 40979 c-97 -19 -161 -96 -161 -196 0 -119 86 -203 207 -203
105 0 187 73 199 176 17 143 -101 250 -245 223z"/>
<path d="M25625 40961 c-141 -65 -156 -264 -27 -355 133 -94 322 10 322 180 0
16 -12 54 -26 82 -49 98 -169 139 -269 93z"/>
<path d="M26573 40944 c-64 -42 -93 -95 -93 -173 0 -82 31 -139 96 -177 79
-46 200 -31 255 32 86 98 64 255 -45 319 -62 36 -156 36 -213 -1z"/>
<path d="M27587 40960 c-102 -31 -164 -150 -132 -256 45 -152 236 -195 347
-77 36 37 48 73 48 139 0 139 -129 234 -263 194z"/>
<path d="M28521 40938 c-52 -25 -97 -91 -106 -153 -19 -122 83 -235 210 -235
52 0 131 44 161 90 54 82 42 202 -28 267 -59 55 -161 69 -237 31z"/>
<path d="M29535 40949 c-23 -5 -57 -23 -77 -39 -116 -96 -98 -274 35 -341 62
-32 163 -24 214 17 175 140 46 413 -172 363z"/>
<path d="M30463 40925 c-32 -16 -61 -41 -79 -67 -25 -36 -29 -50 -29 -114 0
-64 3 -77 30 -115 44 -63 104 -91 181 -87 82 5 132 38 168 109 34 70 34 122
-2 190 -22 43 -38 59 -81 81 -68 36 -121 36 -188 3z"/>
<path d="M34005 27108 c-179 -236 -451 -574 -640 -793 l-185 -215 0 -6495 0
-6495 4150 0 4150 0 0 6394 0 6393 -242 6 c-392 10 -618 66 -825 203 -92 61
-131 103 -171 184 l-27 55 -3 448 -3 447 -3052 0 -3052 0 -100 -132z m3255
-6058 l0 -2600 -1440 0 -1440 0 2 2358 3 2357 26 67 c80 206 240 347 451 399
68 16 154 18 1236 18 l1162 1 0 -2600z m2589 2585 c191 -45 328 -173 398 -370
l28 -80 3 -2367 2 -2368 -1335 0 -1335 0 0 2600 0 2600 1088 0 c937 0 1096 -2
1151 -15z m431 -6282 c0 -571 -1 -613 -20 -690 -34 -143 -107 -265 -205 -344
-60 -48 -168 -96 -243 -108 -48 -8 -747 -11 -2487 -9 l-2420 3 -80 28 c-201
71 -351 220 -418 417 -22 64 -22 75 -25 688 l-3 622 2951 0 2950 0 0 -607z"/>
<path d="M61116 11332 c-40 -172 -123 -335 -227 -447 -44 -46 -104 -92 -207
-157 -166 -105 -616 -410 -992 -673 l-255 -178 -115 -2 c-131 -3 -186 -15
-228 -50 -41 -34 -55 -75 -50 -140 6 -68 29 -102 89 -133 44 -23 45 -23 414
-19 257 2 381 7 407 15 79 27 145 84 259 227 158 198 279 333 410 460 176 170
282 231 353 201 69 -29 110 -110 145 -283 27 -132 41 -298 41 -475 l0 -148 75
0 c41 0 75 3 75 7 0 4 43 275 96 603 90 556 96 602 91 700 -6 123 -30 203 -89
305 -46 78 -171 208 -234 242 l-40 22 -18 -77z"/>
<path d="M56145 11213 c-492 -336 -827 -692 -1010 -1075 -72 -150 -107 -258
-112 -343 -3 -60 -1 -76 19 -109 45 -78 77 -85 543 -123 268 -21 904 -24 1080
-5 154 17 305 46 344 66 40 21 80 75 97 132 8 26 19 109 25 186 18 224 -10
536 -76 843 -26 120 -91 365 -118 440 l-14 40 -13 -60 c-6 -33 -16 -82 -22
-108 -12 -59 -55 -111 -106 -128 -23 -8 -93 -13 -187 -13 -137 0 -154 2 -198
23 -31 15 -58 38 -75 64 -26 39 -27 47 -26 154 1 62 -1 113 -5 113 -3 -1 -69
-44 -146 -97z"/>
<path d="M53597 11124 c-6 -60 -24 -95 -60 -119 -53 -34 -375 -44 -479 -15
-53 15 -94 53 -114 106 -21 54 -6 56 -256 -27 -575 -191 -1068 -484 -1462
-868 -137 -135 -268 -284 -343 -394 -40 -58 -47 -75 -47 -116 0 -53 19 -91 58
-116 22 -14 165 -15 1472 -4 1584 12 1499 8 1524 70 17 39 7 449 -14 604 -35
262 -90 505 -158 690 -37 99 -103 245 -112 245 -2 0 -6 -25 -9 -56z"/>
<path d="M46021 11093 l-21 -18 0 -759 c0 -692 1 -761 17 -778 15 -17 41 -18
409 -18 329 0 395 2 407 14 12 13 16 131 22 766 7 740 7 752 -12 778 l-20 27
-390 3 c-360 2 -392 1 -412 -15z"/>
<path d="M49200 11090 c-20 -20 -20 -33 -20 -773 0 -665 2 -755 16 -775 l15
-22 399 0 399 0 15 22 c14 20 16 110 16 775 0 740 0 753 -20 773 -19 19 -33
20 -410 20 -377 0 -391 -1 -410 -20z"/>
<path d="M67250 10620 c114 -231 125 -274 96 -373 -35 -119 -176 -224 -336
-248 -82 -13 -301 -7 -410 11 -93 15 -211 56 -265 92 -75 50 -93 86 -116 234
-22 147 -57 342 -65 364 -4 11 -10 7 -22 -15 -25 -45 -19 -145 31 -540 49
-388 58 -418 133 -485 79 -69 139 -80 523 -101 229 -12 576 0 643 23 118 40
191 163 169 284 -11 56 -78 248 -137 389 -83 197 -220 434 -308 530 -32 36
-25 17 64 -165z"/>
</g>
</svg>
